<svg width="190" height="40" viewBox="0 0 190 40" fill="none" xmlns="http://www.w3.org/2000/svg">
<path d="M67.8555 9.35707V8.45735C67.8555 6.65791 69.0187 5.3983 71.3451 5.3983H73.6717V0.359863H70.7636C65.7226 0.359863 62.4268 3.23896 62.4268 7.73758V9.35707H58.3555V13.4958H62.233V30.5904H67.8555V13.4958H73.8657V9.35707H67.8555Z" fill="#14171A"/>
<path d="M76.582 9.35718V30.5905H82.2045V9.35718H76.582Z" fill="#14171A"/>
<path d="M102.947 10.9765C102.172 10.2567 101.202 9.71686 100.233 9.17701C99.2634 8.99707 98.1002 8.81714 96.937 8.81714C93.8349 8.81714 91.5083 10.2567 90.5389 11.8762H90.1511V9.35696H84.7227V30.5904H90.3451V18.5341C90.3451 15.8349 92.2838 13.8556 94.9981 13.8556C97.5185 13.8556 99.4574 15.655 99.4574 18.1742V30.7702H105.08V16.7347C105.08 15.655 104.886 14.7553 104.498 13.6756C104.304 12.596 103.723 11.8762 102.947 10.9765Z" fill="#14171A"/>
<path d="M135.322 9.35718L131.445 24.2926H131.057L126.21 9.35718H120.587L115.74 24.2926H115.353L111.475 9.35718H105.465L112.057 30.5905H118.455L123.302 16.1951H123.495L128.342 30.5905H134.74L141.139 9.35718H135.322Z" fill="#14171A"/>
<path d="M158.976 9.35747V12.0566H158.588C157.813 10.977 156.843 10.2572 155.486 9.53741C154.323 8.99757 152.966 8.6377 151.609 8.6377C150.251 8.6377 148.7 8.81762 147.343 9.35747C145.986 9.89729 144.823 10.797 143.853 11.6967C141.915 13.8561 140.945 16.5552 140.945 19.7942C140.945 23.0332 141.915 25.7323 143.853 27.7116C144.823 28.7913 145.986 29.5111 147.343 30.0511C148.7 30.5908 150.058 30.7709 151.609 30.7709C153.353 30.7709 154.905 30.411 156.456 29.5111C157.231 28.9714 158.007 28.2516 158.588 27.5318H158.976V30.5908H164.598V9.35747H158.976ZM157.425 24.6526C156.843 25.1926 156.262 25.7323 155.486 26.0922C154.711 26.4521 153.935 26.6322 152.966 26.4521C149.282 26.4521 146.762 23.9328 146.762 20.1541C146.762 16.3753 149.282 13.6761 152.772 13.6761C156.456 13.6761 158.976 16.1953 158.976 20.1541C159.17 21.7736 158.588 23.3931 157.425 24.6526Z" fill="#14171A"/>
<path d="M183.991 9.35718L178.368 24.2926H177.98L172.358 9.35718H166.348L174.878 29.6909C175.072 30.2306 175.266 30.5905 175.266 31.1304C175.266 31.6702 175.072 32.2101 174.878 32.57C174.103 34.1894 173.133 35.0891 171.195 35.0891H168.868V39.7677H171.776C176.041 39.7677 178.562 37.7884 179.919 34.1894L190.001 9.35718H183.991Z" fill="#14171A"/>
<path d="M82.2045 0.359863H76.582V5.3983H82.2045V0.359863Z" fill="#14171A"/>
<path d="M45.3675 18.714H2.71429C2.32653 18.714 1.93878 18.714 1.7449 18.534C1.35715 18.3541 1.16327 18.1742 0.775511 17.9942C0.581634 17.8143 0.387756 17.4544 0.193878 17.0945C0 16.9145 0 16.5546 0 16.1948C0 15.8349 0 15.475 0.193878 15.295C0.387756 14.9352 0.581634 14.5753 0.775511 14.3953C0.969389 14.2154 1.35715 14.0354 1.7449 13.8555C2.13266 13.6755 2.52042 13.6755 2.71429 13.6755H45.1735C45.5612 13.6755 45.9492 13.6755 46.1429 13.8555C46.5307 14.0354 46.7247 14.2154 47.1124 14.3953C47.3061 14.5753 47.5001 14.9352 47.6941 15.295C47.8879 15.6549 47.8879 16.0148 47.8879 16.1948C47.8879 16.5546 47.8879 16.9145 47.6941 17.0945C47.5001 17.4544 47.3061 17.6343 47.1124 17.9942C46.9184 18.1742 46.5307 18.3541 46.1429 18.534C45.9492 18.534 45.7552 18.714 45.3675 18.714Z" fill="#14171A"/>
<path d="M37.0299 32.3899H11.0502C10.6625 32.3899 10.2747 32.3899 10.0808 32.2101C9.69307 32.03 9.49921 31.8502 9.11145 31.6703C8.91756 31.4903 8.72369 31.1304 8.5298 30.7705C8.33594 30.4106 8.33594 30.0507 8.33594 29.8708C8.33594 29.5109 8.33594 29.151 8.5298 28.971C8.72369 28.7911 8.91756 28.4313 9.11145 28.0714C9.30532 27.8913 9.69307 27.7115 10.0808 27.5314C10.4686 27.3516 10.8563 27.3516 11.0502 27.3516H36.8359C37.4176 27.3516 38.1931 27.7115 38.5808 28.0714C38.9686 28.6111 39.3565 29.151 39.3565 29.6908C39.3565 30.2307 39.1625 30.9505 38.5808 31.3104C38.1931 32.03 37.6116 32.3899 37.0299 32.3899Z" fill="#14171A"/>
<path d="M37.0299 4.85849H11.0502C10.6625 4.85849 10.2747 4.85849 10.0808 4.67854C9.69307 4.67854 9.49921 4.49859 9.11145 4.31867C8.91756 3.95877 8.72369 3.77882 8.5298 3.41893C8.33594 3.05905 8.33594 2.69916 8.33594 2.51921C8.33594 2.33928 8.33594 1.79944 8.5298 1.6195C8.72369 1.43955 8.91756 1.07966 9.11145 0.719777C9.49921 0.359887 9.69307 0.179944 10.0808 0.179944C10.4686 0 10.8563 0 11.0502 0H36.8359C37.4176 0 38.1931 0.359887 38.5808 0.719777C38.9686 1.25961 39.3565 1.79944 39.3565 2.33928C39.3565 2.8791 39.1625 3.59887 38.7748 4.13872C38.1931 4.67854 37.6116 4.85849 37.0299 4.85849Z" fill="#14171A"/>
</svg>
